<svg width="15" height="15" viewBox="0 0 15 15" fill="none" xmlns="http://www.w3.org/2000/svg">
<g clip-path="url(#clip0_1_258)">
<path d="M7.33334 10.1333L6.30834 11.15C5.99642 11.4579 5.57578 11.6305 5.13751 11.6305C4.69923 11.6305 4.27859 11.4579 3.96667 11.15C3.81461 10.9983 3.69397 10.8181 3.61165 10.6197C3.52934 10.4212 3.48697 10.2086 3.48697 9.99375C3.48697 9.77895 3.52934 9.56625 3.61165 9.36785C3.69397 9.16944 3.81461 8.98922 3.96667 8.8375L5.92084 6.9C6.23275 6.59211 6.65339 6.41947 7.09167 6.41947C7.52995 6.41947 7.95059 6.59211 8.26251 6.9C8.46101 7.09721 8.60463 7.3428 8.67917 7.6125C8.72017 7.57867 8.75785 7.541 8.79167 7.5L9.32917 6.96667C9.20882 6.71616 9.0468 6.48791 8.85001 6.29167C8.38195 5.82857 7.7501 5.56882 7.09167 5.56882C6.43324 5.56882 5.80139 5.82857 5.33334 6.29167L3.37501 8.24583C3.14434 8.47474 2.96126 8.74704 2.83632 9.04703C2.71139 9.34702 2.64706 9.66878 2.64706 9.99375C2.64706 10.3187 2.71139 10.6405 2.83632 10.9405C2.96126 11.2405 3.14434 11.5128 3.37501 11.7417C3.84306 12.2048 4.47491 12.4645 5.13334 12.4645C5.79177 12.4645 6.42362 12.2048 6.89167 11.7417L8.41251 10.2333H8.20417C7.91076 10.2385 7.61795 10.2049 7.33334 10.1333Z" fill="#1A1A1A" fill-opacity="0.55"/>
<path d="M11.9208 3.25833C11.4528 2.79524 10.8209 2.53548 10.1625 2.53548C9.50406 2.53548 8.87221 2.79524 8.40416 3.25833L6.88333 4.76667H7.08749C7.38304 4.76659 7.67729 4.80583 7.96249 4.88333L8.98749 3.86667C9.29941 3.55878 9.72005 3.38614 10.1583 3.38614C10.5966 3.38614 11.0172 3.55878 11.3292 3.86667C11.4812 4.01838 11.6019 4.19861 11.6842 4.39701C11.7665 4.59542 11.8089 4.80811 11.8089 5.02292C11.8089 5.23772 11.7665 5.45042 11.6842 5.64882C11.6019 5.84723 11.4812 6.02745 11.3292 6.17917L9.37499 8.11667C9.06308 8.42456 8.64244 8.59719 8.20416 8.59719C7.76588 8.59719 7.34524 8.42456 7.03333 8.11667C6.83482 7.91946 6.69121 7.67387 6.61666 7.40417C6.57495 7.43252 6.5359 7.46459 6.49999 7.5L5.96249 8.03333C6.08284 8.28384 6.24487 8.51209 6.44166 8.70833C6.90971 9.17143 7.54156 9.43118 8.19999 9.43118C8.85843 9.43118 9.49027 9.17143 9.95833 8.70833L11.9125 6.77083C12.1427 6.54165 12.3253 6.26926 12.4499 5.9693C12.5745 5.66935 12.6387 5.34773 12.6387 5.02292C12.6387 4.6981 12.5745 4.37649 12.4499 4.07653C12.3253 3.77658 12.1427 3.50419 11.9125 3.275L11.9208 3.25833Z" fill="#1A1A1A" fill-opacity="0.55"/>
</g>
<defs>
<clipPath id="clip0_1_258">
<rect width="15" height="15" fill="white"/>
</clipPath>
</defs>
</svg>
