<svg width="15" height="15" viewBox="0 0 15 15" fill="none" xmlns="http://www.w3.org/2000/svg">
<path d="M7.49993 8.85625C6.16868 8.85625 5.08118 7.775 5.08118 6.4375C5.08118 5.1 6.16868 4.025 7.49993 4.025C8.83118 4.025 9.91868 5.10625 9.91868 6.44375C9.91868 7.78125 8.83118 8.85625 7.49993 8.85625ZM7.49993 4.9625C6.68743 4.9625 6.01868 5.625 6.01868 6.44375C6.01868 7.2625 6.68118 7.925 7.49993 7.925C8.31868 7.925 8.98118 7.2625 8.98118 6.44375C8.98118 5.625 8.31243 4.9625 7.49993 4.9625Z" fill="#1A1A1A" fill-opacity="0.55"/>
<path d="M7.49993 14.225C6.57493 14.225 5.64368 13.875 4.91868 13.1812C3.07493 11.4062 1.03743 8.575 1.80618 5.20625C2.49993 2.15 5.16868 0.78125 7.49993 0.78125C7.49993 0.78125 7.49993 0.78125 7.50618 0.78125C9.83743 0.78125 12.5062 2.15 13.1999 5.2125C13.9624 8.58125 11.9249 11.4062 10.0812 13.1812C9.35618 13.875 8.42493 14.225 7.49993 14.225ZM7.49993 1.71875C5.68118 1.71875 3.34368 2.6875 2.72493 5.4125C2.04993 8.35625 3.89993 10.8937 5.57493 12.5C6.65618 13.5437 8.34993 13.5437 9.43118 12.5C11.0999 10.8937 12.9499 8.35625 12.2874 5.4125C11.6624 2.6875 9.31868 1.71875 7.49993 1.71875Z" fill="#1A1A1A" fill-opacity="0.55"/>
</svg>
