<svg width="15" height="15" viewBox="0 0 15 15" fill="none" xmlns="http://www.w3.org/2000/svg">
<path d="M11.2499 4.94376C11.2311 4.94376 11.2186 4.94376 11.1999 4.94376H11.1686C9.98739 4.90626 9.10614 3.99376 9.10614 2.86876C9.10614 1.71876 10.0436 0.787506 11.1874 0.787506C12.3311 0.787506 13.2686 1.72501 13.2686 2.86876C13.2624 4.00001 12.3811 4.91251 11.2561 4.95001C11.2561 4.94376 11.2561 4.94376 11.2499 4.94376ZM11.1874 1.71876C10.5561 1.71876 10.0436 2.23126 10.0436 2.86251C10.0436 3.48126 10.5249 3.98126 11.1436 4.00626C11.1499 4.00001 11.1999 4.00001 11.2561 4.00626C11.8624 3.97501 12.3311 3.47501 12.3374 2.86251C12.3374 2.23126 11.8249 1.71876 11.1874 1.71876Z" fill="#1A1A1A" fill-opacity="0.55"/>
<path d="M11.2562 9.55002C11.0125 9.55002 10.7688 9.53126 10.525 9.48751C10.2688 9.44376 10.1 9.20002 10.1438 8.94377C10.1875 8.68752 10.4313 8.51877 10.6875 8.56252C11.4562 8.69377 12.2688 8.55002 12.8125 8.18752C13.1063 7.99377 13.2625 7.75001 13.2625 7.50626C13.2625 7.26251 13.1 7.02501 12.8125 6.83126C12.2688 6.46876 11.4438 6.32502 10.6688 6.46252C10.4125 6.51252 10.1688 6.33751 10.125 6.08126C10.0813 5.82501 10.25 5.58127 10.5063 5.53752C11.525 5.35627 12.5813 5.55001 13.3313 6.05001C13.8813 6.41876 14.2 6.94376 14.2 7.50626C14.2 8.06251 13.8875 8.59377 13.3313 8.96877C12.7625 9.34377 12.025 9.55002 11.2562 9.55002Z" fill="#1A1A1A" fill-opacity="0.55"/>
<path d="M3.73124 4.94375C3.72499 4.94375 3.71874 4.94375 3.71874 4.94375C2.59374 4.90625 1.71249 3.99375 1.70624 2.86875C1.70624 1.71875 2.64374 0.78125 3.78749 0.78125C4.93124 0.78125 5.86874 1.71875 5.86874 2.8625C5.86874 3.99375 4.98749 4.90625 3.86249 4.94375L3.73124 4.475L3.77499 4.94375C3.76249 4.94375 3.74374 4.94375 3.73124 4.94375ZM3.79374 4.00625C3.83124 4.00625 3.86249 4.00625 3.89999 4.0125C4.45624 3.9875 4.94374 3.4875 4.94374 2.86875C4.94374 2.2375 4.43124 1.725 3.79999 1.725C3.16874 1.725 2.65624 2.2375 2.65624 2.86875C2.65624 3.48125 3.13124 3.975 3.73749 4.0125C3.74374 4.00625 3.76874 4.00625 3.79374 4.00625Z" fill="#1A1A1A" fill-opacity="0.55"/>
<path d="M3.725 9.55002C2.95625 9.55002 2.21875 9.34377 1.65 8.96877C1.1 8.60002 0.78125 8.06876 0.78125 7.50626C0.78125 6.95001 1.1 6.41876 1.65 6.05001C2.4 5.55001 3.45625 5.35627 4.475 5.53752C4.73125 5.58127 4.9 5.82501 4.85625 6.08126C4.8125 6.33751 4.56875 6.51252 4.3125 6.46252C3.5375 6.32502 2.71875 6.46876 2.16875 6.83126C1.875 7.02501 1.71875 7.26251 1.71875 7.50626C1.71875 7.75001 1.88125 7.99377 2.16875 8.18752C2.7125 8.55002 3.525 8.69377 4.29375 8.56252C4.55 8.51877 4.79375 8.69377 4.8375 8.94377C4.88125 9.20002 4.7125 9.44376 4.45625 9.48751C4.2125 9.53126 3.96875 9.55002 3.725 9.55002Z" fill="#1A1A1A" fill-opacity="0.55"/>
<path d="M7.49989 9.61249C7.48114 9.61249 7.46864 9.61249 7.44989 9.61249H7.41864C6.23739 9.57499 5.35614 8.66249 5.35614 7.53749C5.35614 6.38749 6.29364 5.45624 7.43739 5.45624C8.58114 5.45624 9.51864 6.39374 9.51864 7.53749C9.51239 8.66874 8.63114 9.58124 7.50614 9.61874C7.50614 9.61249 7.50614 9.61249 7.49989 9.61249ZM7.43739 6.38749C6.80614 6.38749 6.29364 6.89999 6.29364 7.53124C6.29364 8.14999 6.77489 8.64999 7.39364 8.67499C7.39989 8.66874 7.44989 8.66874 7.50614 8.67499C8.11239 8.64374 8.58114 8.14374 8.58739 7.53124C8.58739 6.90624 8.07489 6.38749 7.43739 6.38749Z" fill="#1A1A1A" fill-opacity="0.55"/>
<path d="M7.49987 14.225C6.74987 14.225 5.99987 14.0312 5.41862 13.6375C4.86862 13.2687 4.54987 12.7437 4.54987 12.1812C4.54987 11.625 4.86237 11.0875 5.41862 10.7187C6.58737 9.94373 8.41862 9.94373 9.58112 10.7187C10.1311 11.0875 10.4499 11.6125 10.4499 12.175C10.4499 12.7312 10.1374 13.2687 9.58112 13.6375C8.99987 14.025 8.24987 14.225 7.49987 14.225ZM5.93737 11.5062C5.64362 11.7 5.48737 11.9437 5.48737 12.1875C5.48737 12.4312 5.64987 12.6687 5.93737 12.8625C6.78112 13.4312 8.21237 13.4312 9.05612 12.8625C9.34987 12.6687 9.50612 12.425 9.50612 12.1812C9.50612 11.9375 9.34362 11.7 9.05612 11.5062C8.21862 10.9375 6.78737 10.9437 5.93737 11.5062Z" fill="#1A1A1A" fill-opacity="0.55"/>
</svg>
