<svg width="35" height="35" viewBox="0 0 35 35" fill="none" xmlns="http://www.w3.org/2000/svg">
<rect width="35" height="35" rx="2" fill="white" fill-opacity="0.6"/>
<path d="M16.7391 17.4049C13.9251 17.4049 11.6349 15.1146 11.6349 12.3007C11.6349 9.48675 13.9251 7.19653 16.7391 7.19653C19.553 7.19653 21.8432 9.48675 21.8432 12.3007C21.8432 15.1146 19.553 17.4049 16.7391 17.4049ZM16.7391 8.52805C14.6619 8.52805 12.9664 10.2235 12.9664 12.3007C12.9664 14.3779 14.6619 16.0733 16.7391 16.0733C18.8162 16.0733 20.5117 14.3779 20.5117 12.3007C20.5117 10.2235 18.8162 8.52805 16.7391 8.52805Z" fill="#408AAA"/>
<path d="M24.3644 26.2817C24.0004 26.2817 23.6986 25.9799 23.6986 25.6159C23.6986 22.5534 20.574 20.0679 16.7392 20.0679C12.9044 20.0679 9.77976 22.5534 9.77976 25.6159C9.77976 25.9799 9.47795 26.2817 9.114 26.2817C8.75005 26.2817 8.44824 25.9799 8.44824 25.6159C8.44824 21.8255 12.1676 18.7364 16.7392 18.7364C21.3107 18.7364 25.0301 21.8255 25.0301 25.6159C25.0301 25.9799 24.7283 26.2817 24.3644 26.2817Z" fill="#408AAA"/>
</svg>
