<svg width="35" height="35" viewBox="0 0 35 35" fill="none" xmlns="http://www.w3.org/2000/svg">
<rect width="35" height="35" rx="2" fill="white" fill-opacity="0.6"/>
<path d="M18.25 11.7917H15.7333C14.7166 11.7917 13.875 10.9666 13.8583 9.94998L13.8333 8.67501C13.825 8.33334 14.1 8.04166 14.4416 8.03333C14.45 8.03333 14.45 8.03333 14.4583 8.03333C14.8 8.03333 15.075 8.30831 15.0833 8.64164L15.1083 9.91667C15.1166 10.25 15.4 10.5333 15.7333 10.5333H18.25C18.6 10.5333 18.875 10.25 18.875 9.90833V8.66667C18.875 8.325 19.1583 8.04167 19.5 8.04167C19.8416 8.04167 20.125 8.325 20.125 8.66667V9.91667C20.125 10.95 19.2833 11.7917 18.25 11.7917Z" fill="#5D2A6A"/>
<path d="M21.1667 25.125C21.0083 25.125 20.85 25.0667 20.725 24.9417L19.0583 23.275C18.8167 23.0333 18.8167 22.6333 19.0583 22.3916L20.725 20.725C20.9667 20.4833 21.3667 20.4833 21.6083 20.725C21.85 20.9666 21.85 21.3667 21.6083 21.6083L20.3833 22.8333L21.6083 24.0583C21.85 24.3 21.85 24.7 21.6083 24.9417C21.4833 25.0667 21.325 25.125 21.1667 25.125Z" fill="#5D2A6A"/>
<path d="M23.6666 25.125C23.5083 25.125 23.35 25.0667 23.225 24.9417C22.9833 24.7 22.9833 24.3 23.225 24.0583L24.45 22.8333L23.225 21.6083C22.9833 21.3667 22.9833 20.9666 23.225 20.725C23.4666 20.4833 23.8666 20.4833 24.1083 20.725L25.7749 22.3916C26.0166 22.6333 26.0166 23.0333 25.7749 23.275L24.1083 24.9417C23.9833 25.0667 23.825 25.125 23.6666 25.125Z" fill="#5D2A6A"/>
<path d="M17.8333 25.9583H13.6667C10.625 25.9583 8.875 24.2083 8.875 21.1667V12.8333C8.875 9.79166 10.625 8.04166 13.6667 8.04166H20.3333C23.375 8.04166 25.125 9.79166 25.125 12.8333V18.6667C25.125 19.0083 24.8417 19.2917 24.5 19.2917C24.1583 19.2917 23.875 19.0083 23.875 18.6667V12.8333C23.875 10.45 22.7167 9.29166 20.3333 9.29166H13.6667C11.2833 9.29166 10.125 10.45 10.125 12.8333V21.1667C10.125 23.55 11.2833 24.7083 13.6667 24.7083H17.8333C18.175 24.7083 18.4583 24.9917 18.4583 25.3333C18.4583 25.675 18.175 25.9583 17.8333 25.9583Z" fill="#5D2A6A"/>
</svg>
