<svg width="13" height="12" viewBox="0 0 13 12" fill="none" xmlns="http://www.w3.org/2000/svg">
<path d="M5.80896 10.875C2.97508 10.875 0.667847 8.575 0.667847 5.75C0.667847 2.925 2.97508 0.625 5.80896 0.625C8.64285 0.625 10.9501 2.925 10.9501 5.75C10.9501 8.575 8.64285 10.875 5.80896 10.875ZM5.80896 1.375C3.38637 1.375 1.42021 3.34 1.42021 5.75C1.42021 8.16 3.38637 10.125 5.80896 10.125C8.23156 10.125 10.1977 8.16 10.1977 5.75C10.1977 3.34 8.23156 1.375 5.80896 1.375Z" fill="#C1C1C1"/>
<path d="M11.0755 11.375C10.9802 11.375 10.8849 11.34 10.8096 11.265L9.80648 10.265C9.66102 10.12 9.66102 9.87997 9.80648 9.73497C9.95194 9.58997 10.1927 9.58997 10.3381 9.73497L11.3413 10.735C11.4867 10.88 11.4867 11.12 11.3413 11.265C11.2661 11.34 11.1708 11.375 11.0755 11.375Z" fill="#C1C1C1"/>
</svg>
